{"title":"The Kings of Summer 2013-720p-BluRay-dts x264@Anirban","uid":8892917,"size":797147489,"categoryP":"video","categoryS":"hd___movies","magnet":"?xt=urn:btih:45343dc6fe427b73b9244977bf6f433b834b6639&amp;dn=The+Kings+of+Summer+2013-720p-BluRay-dts+x264%40Anirban&amp;tr=udp%3A%2F%2Ftracker.openbittorrent.com%3A80&amp;tr=udp%3A%2F%2Fopen.demonii.com%3A1337&amp;tr=udp%3A%2F%2Ftracker.coppersurfer.tk%3A6969&amp;tr=udp%3A%2F%2Fexodus.desync.com%3A6969","seeders":0,"leechers":0,"uploader":"NokiaAnir","files":8,"time":1378629963,"description":"General\nFormat                           : MPEG-4\nFormat profile                   : Base Media\nCodec ID                         : isom\nFile size                        : 748 MiB\nDuration                         : 1h 35mn\nOverall bit rate                 : 1 093 Kbps\nEncoded date                     : UTC 2013-09-06 01:55:22\nTagged date                      : UTC 2013-09-06 01:55:22\n\nVideo\nID                               : 1\nFormat                           : AVC\nFormat/Info                      : Advanced Video Codec\nFormat profile                   : &lt;a class=&quot;__cf_email__&quot; href=&quot;/cdn-cgi/l/email-protection&quot; data-cfemail=&quot;c880a1afa08884fce6f9&quot;&gt;[email&amp;#160;protected]&lt;/a&gt;&lt;script cf-hash='f9e31' type=&quot;text/javascript&quot;&gt;\n/* &lt;![CDATA[ */!function(){try{var t=&quot;currentScript&quot;in document?document.currentScript:function(){for(var t=document.getElementsByTagName(&quot;script&quot;),e=t.length;e--;)if(t[e].getAttribute(&quot;cf-hash&quot;))return t[e]}();if(t&amp;&amp;t.previousSibling){var e,r,n,i,c=t.previousSibling,a=c.getAttribute(&quot;data-cfemail&quot;);if(a){for(e=&quot;&quot;,r=parseInt(a.substr(0,2),16),n=2;a.length-n;n+=2)i=parseInt(a.substr(n,2),16)^r,e+=String.fromCharCode(i);e=document.createTextNode(e),c.parentNode.replaceChild(e,c)}}}catch(u){}}();/* ]]&gt; */&lt;/script&gt;\nFormat settings, CABAC           : Yes\nFormat settings, ReFrames        : 5 frames\nFormat settings, GOP             : M=1, N=27\nCodec ID                         : avc1\nCodec ID/Info                    : Advanced Video Coding\nDuration                         : 1h 34mn\nBit rate mode                    : Variable\nBit rate                         : 1 006 Kbps\nMaximum bit rate                 : 6 770 Kbps\nWidth                            : 1 280 pixels\nHeight                           : 536 pixels\nDisplay aspect ratio             : 2.35:1\nFrame rate mode                  : Constant\nFrame rate                       : 23.976 fps\nColor space                      : YUV\nChroma subsampling               : 4:2:0\nBit depth                        : 8 bits\nScan type                        : Progressive\nBits/(Pixel*Frame)               : 0.061\nStream size                      : 681 MiB (91%)\nWriting library                  : x264 core 132 r2 76a5c3a\nEncoded date                     : UTC 2013-09-06 01:55:22\nTagged date                      : UTC 2013-09-06 01:55:27\nColor primaries                  : BT.709-5, BT.1361, IEC 61966-2-4, SMPTE RP177\nMatrix coefficients              : BT.709-5, BT.1361, IEC 61966-2-4 709, SMPTE RP177\n\nAudio\nID                               : 2\nFormat                           : AAC\nFormat/Info                      : Advanced Audio Codec\nFormat profile                   : LC\nCodec ID                         : 40\nDuration                         : 1h 35mn\nBit rate mode                    : Variable\nBit rate                         : 93.8 Kbps\nMaximum bit rate                 : 109 Kbps\nChannel(s)                       : 2 channels\nChannel positions                : Front: L R\nSampling rate                    : 48.0 KHz\nCompression mode                 : Lossy\nStream size                      : 64.2 MiB (9%)\nLanguage                         : English\nEncoded date                     : UTC 2013-09-06 01:55:26\nTagged date                      : UTC 2013-09-06 01:55:27\n\n","torrent":{"xt":"urn:btih:45343dc6fe427b73b9244977bf6f433b834b6639","amp;dn":"The+Kings+of+Summer+2013-720p-BluRay-dts+x264%40Anirban","amp;tr":["udp%3A%2F%2Ftracker.openbittorrent.com%3A80","udp%3A%2F%2Fopen.demonii.com%3A1337","udp%3A%2F%2Ftracker.coppersurfer.tk%3A6969","udp%3A%2F%2Fexodus.desync.com%3A6969"],"infoHash":"45343dc6fe427b73b9244977bf6f433b834b6639","infoHashBuffer":{"type":"Buffer","data":[69,52,61,198,254,66,123,115,185,36,73,119,191,111,67,59,131,75,102,57]},"announce":[],"urlList":[]}}